<svg width="149" height="72" fill="none" xmlns="http://www.w3.org/2000/svg"><path d="M144.16 31.1053c-1.51 1.0859-3.121 1.8756-4.732 2.764 0-1.6781-.1-3.455-.604-5.0344.101-.2961.101-.691.101-.9871.403-2.9614.705-7.0087-2.013-9.0816-.302-.2962-1.208 0-1.913.2961-.201-.1974-.302-.2961-.503-.3949-.101-.1974-.201-.4935-.201-.6909 0-.0988-.202-.1975-.403-.1975.302-.3948.302-.7897-.403-1.0858-.402-.1974-.805-.2962-1.107-.3949-.101-.0987-.101-.0987-.201-.0987-.906-.2961-1.913-.4935-2.92-.691.101-.2961.403-.7897.604-.9871.101-.1974.302-.2961.403-.3949.101-.0987.101-.0987.201-.1974 0 0 .101 0 .101-.0987l.101-.0987c.402-.2962.805-.8884.201-1.1846-.604-.2961-1.51-.0987-2.013.1975-.906.6909-1.611 1.3819-2.114 2.3691-2.013-.1975-4.027-.1975-6.141-.0987.101-.0988.101-.1975.101-.2962.201-.5923-.906-.4935-1.208-.4935-1.611.1974-3.121.3948-4.731.5922 1.409-3.7511 3.12-8.4893 1.006-12.14169-1.208-2.07298-3.925-2.56655-6.14-2.66526-2.416-.09871-4.933.49357-7.047 1.57941-4.8314 2.56654-7.1467 7.60092-8.254 12.93144-.5033-.691-2.3153-.3949-2.6173.4936-.1006.2961-.2013.5922-.302.9871-.2013.1974-.302.3948-.302.5923v.1974h-.2013c0-.0987 0-.1974.1007-.2961.1006-.0988.2013-.1975.302-.3949.6039-2.2704 1.2079-4.5408 1.9126-6.7125.302-.7897-2.5166-.39485-2.8186.39486-.4027 1.18454-.8053 2.36914-1.1073 3.55364-.2013.0987-.4027.1975-.4027.2962v.0987c-.1006-.0987-.302-.1974-.5033-.1974v-.9872c0-.3948-2.8186 0-2.8186.7897v1.5794c-.2013.0988-.302.1975-.5033.2962-.1007.0987-.1007.0987-.2013.1974-.1007.0987-.1007.1974-.1007.1974v.0988s0-.0001-.1007.0987c-.1006.0987-.2013.2961 0 .4935.2014.1975.5034.1975.7047.1975h.1006v.4935h-.7046l-.4027-.0987c0-.3948-.7046-.4936-1.4093-.2961v-.0987c-.1006-.5923-.2013-1.1846-.2013-1.7769.2013-.0987.5033-.1974.7047-.2961.2013-.0987.302-.1974.302-.3949v-.1974c0-.1974-.4027-.1974-.5034-.1974h-.6039c-.1007-1.2833-.1007-2.5666-.1007-3.84984 0-.78971-2.8186-.29614-2.8186.78974 0 1.7768 0 3.5536.2013 5.2318h-.302v-1.4807c0-.9872-1.3086-1.1846-2.1139-.7897.302-.2962.5033-.5923.4026-.9872-.4026-1.382-.8053-2.76394-1.0066-4.24464-.2013-1.38199-3.0199-.69099-2.8186.78971.2013 1.48073.604 2.86263 1.0066 4.24463.2014.7897 1.3087.8885 2.114.4936-.2013.1974-.4027.4936-.4027.7897v.5923c-.3019-.2962-.5033-.2962-.9059-.2962-1.1073 0-1.7113.8885-1.4093 1.4807-.2014 0-.302-.0987-.5034-.0987-.4026-1.1845-.7046-2.4678-.7046-3.7511 0-.8884-1.3086-.9871-2.1139-.691v-.1974c-.4027-.7897-.604-1.67812-.8054-2.46782-.3019-1.28327-3.2212-.59228-2.8186.7897.2014.59232.302 1.28332.5034 1.87552h-.1007c-.302.0987-.604.1975-.906.3949-.8053.0987-1.8119.5923-1.8119 1.1845.1006.4936.1006.9872.2013 1.382-.4027.0987-1.0066.0987-1.51.1975-.3019-.7897-.5033-1.5795-.6039-2.3692-.1007-.8884-1.6107-.8884-2.3153-.2961-.8053-2.073-1.812-3.94853-3.1206-5.72537-2.7179-3.35624-7.2478-4.5408-11.375-3.65238-1.9127.39485-3.7246 1.18455-5.0332 2.56654-1.208 1.38198-1.4093 3.06011-1.208 4.73821.2013 1.4807.604 3.9486 1.6106 5.9228-.4026 0-.7046 0-.906.0987-.302.0987-.6039.1975-.8053.3949-1.9126 0-3.9259 0-5.8385-.0987-4.2279-.1975-8.3551-.8884-12.583-.691-.906 0-1.51.691-1.51 1.2832-1.0066.4936-1.7112 1.2833-2.1139 2.2705-1.7113-1.0859-3.5232-2.2705-5.3352-3.1589-.7046-.3948-3.32191.691-2.3153 1.1846 1.812.8884 3.6239 2.073 5.3352 3.1588.5033.2961 1.3087.0987 1.812-.0987 0 0 .1006 0 .2013-.0987-.302 1.382-.2013 3.0601.2013 4.4421 0 .0987.1007.1974.2014.2961V26.3671c-.4027.1974-.7047.4935-.8054.7897-.2013 1.382-.3019 2.764-.3019 4.1459-.302.1975-.5034.4936-.5034.7897-.2013 3.2576 0 6.6138.5034 9.8714.2013 2.6652.7046 5.2318 1.2079 7.897.1007.3949.1007.7897.2014 1.2833-.302 1.0858-.4027 2.3691-.2014 3.455-.906.1974-1.7113.8884-1.2079 1.5794.8053 1.1845 1.6106 1.9742 2.6172 2.5665-.604-.0987-1.4093.0987-1.9126.5923-.8053.7897-1.7113 1.4807-2.5166 2.2704-.4027.3948-.302.8884.302 1.0858.7046.1975 1.51-.0987 2.0133-.4935.8053-.7897 1.7113-1.4807 2.5166-2.2704.2013-.1975.302-.4936.2013-.691 3.2213 1.6781 7.2478 1.2832 11.1737.8884-.906 1.5794-1.5099 3.2575-2.2146 4.9357-.302.6909 2.5166.3948 2.8186-.3949.604-1.6781 1.208-3.2575 2.1139-4.8369 3.7246.0987 7.5499.0987 11.2744.0987.1007.1974.4027.2961.7047.2961 3.3219.2962 6.5431-.0987 9.7644-.691 4.8319-.1974 9.6637-.4936 14.4956-.7897 7.5498-.1974 15.2003-.2961 22.7501-.2961.1006.0987.2013.1974.302.2961.302.2961.604.2961 1.0066.2961h.2013c.7047 0 1.4093.0988 2.114.0988.2013 0 .302.0987.604 0 .8053.0987 1.6106.0987 2.3152.1974.2014.1974.5032.2961.8052.3948 3.825.2962 7.651.4936 11.476.691.101.1975.503.2962.805.2962 7.147.0987 15.402 2.7639 21.744-1.6782.503-.3948.302-.8884-.302-.9871h-.302c1.208-2.764 2.214-5.5279 2.919-8.4893.403-.1974.604-.4936.604-.8884 0-1.1846.201-2.3692.403-3.5537.201-.8884.302-1.7769.402-2.6653.403-2.1717.805-4.3434 1.007-6.4163 2.315-1.0859 4.53-2.2704 6.644-3.7511 1.61-1.1846-.806-1.8756-1.812-1.1846Zm-55.7682-14.807-.1007.0987c.1007-.2961.1007-.5922.2014-.8884h.1006c0 .1975-.1006.4936-.2013.7897Z" fill="#000"/><path d="M63.729 12.5468c.1007.1974.604.1974.8053.1974.4027 0 .8053-.0987 1.1073-.1974.4027-.1974 1.1073-.5923.8053-1.0858-.4026-.5923-.604-1.1846-1.0066-1.77689-.1007-.19742-.604-.19742-.8053-.19742-.4027 0-.8054.09871-1.1073.19742-.4027.19743-1.1073.59229-.8054 1.08589.302.5922.604 1.2832 1.0067 1.7768ZM20.8461 10.8691c.2013.5922 1.1073.5922 1.6106.4935.5033-.0987 1.4093-.5923 1.208-1.2833-.2013-.59223-.4027-1.28322-.906-1.77679-.5033-.49357-1.3086-.39485-1.9126-.19743-.4027.19743-1.208.78971-.7047 1.28327.4027.59228.5034.88845.7047 1.48075ZM30.9124 13.8306c.8053 0 3.1206-1.2832 1.208-1.2832-.906 0-3.1206 1.2832-1.208 1.2832ZM123.423 12.2512c.302.0987.705 0 1.107-.0987.302-.0987.705-.1974.906-.4935.403-.3949.705-.691 1.007-1.1846.101-.1974.201-.3949 0-.59228-.201-.19743-.503-.19743-.805-.29614-.403 0-.806.09871-1.108.19743-.302.09871-.604.29609-.805.59229-.101.1974-.201.3948-.403.4936-.1.0987-.1.0987-.201.1974-.201.1974-.302.3948-.302.5923.101.3948.302.4935.604.5922ZM136.811 17.5816c.604-.0988 1.409-.1975 1.913-.691 1.308-1.0859 2.617-2.1717 3.623-3.5537.302-.3949-1.006-.1974-1.107-.1974-.503.0987-1.308.2961-1.711.691-.906 1.2832-2.215 2.2704-3.423 3.3562-.503.3949.403.3949.705.3949ZM147.682 44.3332h-4.932c-.604 0-1.51.4936-1.611 1.0859-.1.691.806.8884 1.309.8884h4.932c.604 0 1.51-.4936 1.611-1.0859.101-.6909-.705-.8884-1.309-.8884ZM57.3874 60.1268c-.5033.0987-1.4093.2962-1.6106.7897-.5034 1.2833-1.0067 2.5666-1.4093 3.8498-.2014.691 2.6172.2962 2.8186-.4935.4026-1.2833.8053-2.5666 1.4093-3.8498.2013-.4936-1.0067-.2962-1.208-.2962ZM62.0178 62.6935c-.302 0-.7046.0987-1.0066.1974-.302.0987-.7047.1974-1.0067.3949-.1006.0987-.302.1974-.302.3948v.2962c0 .0987-.1006.1974-.1006.2961-.1007.0987-.1007.1974 0 .2961.2013.0988.5033.0988.7046.0988.4027 0 .7047-.0988 1.1073-.2962.2013-.0987.604-.1974.8053-.3948.1007-.1975.2014-.2962.302-.4936v-.4936c0-.2961-.4026-.2961-.5033-.2961ZM117.483 66.3456c-.402-.691-3.019.2961-2.818.7897.805 1.5794 1.912 3.0601 2.919 4.6395.403.691 3.02-.3948 2.819-.7897-1.007-1.5794-2.114-3.0601-2.92-4.6395ZM121.51 63.9767c-.302-.5923-1.107-.5923-1.61-.3949-.403.0987-1.51.5923-1.208 1.1846.402.7897.805 1.5794 1.208 2.2704.302.5922 1.107.5922 1.61.3948.403-.0987 1.51-.5923 1.208-1.1845-.402-.691-.805-1.4807-1.208-2.2704ZM5.74646 42.6544c-1.50996.3948-3.01992.5923-4.52988.9871-.50332.0987-1.30864.5923-1.20797 1.2833.20133.691 1.1073.691 1.71129.5923 1.50996-.3949 3.01992-.5923 4.52988-.9872.50332-.0987 1.30863-.6909 1.20797-1.2832-.30199-.691-1.20797-.691-1.71129-.5923Z" fill="#000"/><path d="M44.0996 39.6922c-.1007-2.6653-.5033-5.3305-.5033-7.9958 0-2.1717.4026-4.4421-.4027-6.515 0-.1975.1007-.4936.1007-.691.2013-1.0859-3.3219-.4936-3.8253.4935-.302.2962-.5033.5923-.4026.9872 0 .0987.1006.1974.1006.2961-.7046 3.1588-1.6106 6.3176-2.6172 9.3778-.4027 1.1845-.906 2.3691-1.3087 3.5536-.6039-1.0858-1.2079-2.1717-1.7112-3.3562-1.4093-3.455-2.6173-6.9099-4.3286-10.1675.2013-1.4807-3.2212-1.382-3.9259 0-.8053 1.6781-.7046 3.3563-.4026 5.2318.3019 2.073.4026 4.0473.4026 6.1202 0 3.9486.4027 7.8971.4027 11.8456-.4027.3949-.5034.8884-.1007 1.382l.604.5923c.906.691 3.5232.0987 3.5232-1.2833 0-4.1459-.302-8.1932-.4026-12.3391v-1.1846c.1006.0987.1006.2961.2013.3949.604 1.5794 1.3086 3.1588 2.2146 4.6395.906 1.4807 1.3086 3.0601 1.812 4.6395-.2014.1974-.302.4936-.2014.691 0 .1974.1007.2961.302.3948.604.5923 1.9126.2962 2.5166 0 .302-.0987.604-.2961.8053-.3948.302-.1974.906-.691.7047-1.1846 0-.0987-.1007-.1974-.1007-.2961.5033-1.2833.7047-2.5665 1.0067-3.9485.302-1.382.8053-2.764 1.3086-4.146.1007.5923.1007 1.2833.2013 1.8756.2014 2.5665 0 5.0343 0 7.6009 0 .8884.1007 1.5794.2014 2.4678.1006.2962.4026 1.7769.3019 1.8756-.6039.5922-.4026 1.2832.4027 1.3819.906.1975 2.1139-.0987 2.8186-.6909 1.208-1.0859.604-2.8627.4027-4.2447-.604-2.3691-.1007-5.0344-.1007-7.4035ZM52.5556 40.384c-.1007-1.9743-.8053-3.8498-.8053-5.8241 0-2.2704.2013-4.5408-.2014-6.8112-.1006-.691-4.1272.0987-4.0265 1.0858.302 2.073.2013 4.2447.2013 6.3177 0 2.073.5033 3.8498.7046 5.9228.302 2.073-.1006 4.1459.1007 6.2189.1007.9871.8053 2.764.1007 3.5537-.4027.4936 1.5099.2961 1.6106.2961.8053-.0987 1.8119-.3948 2.3153-.9871.7046-.7897.2013-2.3691.1006-3.3563-.2013-2.2704 0-4.3433-.1006-6.4163ZM69.1649 37.0275c-2.1139-2.7639-5.9391-.7897-8.6571-1.5794-1.4093-.3948-1.4093-2.2704-1.4093-3.3562 0-1.382-.1006-2.764-.302-4.146-.1006-1.0858 0-2.073.8054-2.8627.1006-.0987.9059-.2961.8053-.2961.4026-.0987.7046-.0987 1.1073-.0987 1.6106-.0987 4.7312.1974 4.1272 2.4678-.302.9871 3.6239.3949 3.9259-.5923 1.208-4.5408-7.4491-3.6524-9.8651-3.0601-2.2146.5923-4.7312 1.8756-4.8319 4.3434-.1006 1.1846.302 2.3691.302 3.5537.1007 1.382-.2013 2.764.302 4.1459 1.1073 2.9614 5.6372 1.5795 7.8518 1.7769 3.9259.2961 2.718 5.4292 2.8186 7.897 0 1.2833 1.208 3.455.2014 4.4421-.604.691-2.0133.691-2.8186.7897-.8054.0987-2.2147.2962-2.8186-.4935-1.0067-1.382.1006-3.7511-.1007-5.4293-.2013-.9871-4.2279-.0987-4.0266.9872.302 2.6652-1.4093 6.1202 2.416 6.6138 2.5166.2961 5.2345-.1975 7.6504-.8885 1.208-.3948 2.3153-.9871 3.322-1.7768 1.0066-.8884.7046-2.3691.4026-3.5537-.7046-2.9614.7047-6.3176-1.208-8.8842ZM86.7812 36.83c-.1007-3.7511-.7047-7.5022-.7047-11.2533 0-1.9743-4.0265-1.2833-4.0265.2962 0 3.5536.5033 7.1073.7046 10.7597v.1974c-2.0133 0-3.9259.1974-5.9392.1974.2014-4.6395-.604-9.1803-.4026-13.8198 0-.5923-3.9259-.0987-4.0266 1.0858-.2013 4.4421.604 8.8842.5033 13.3263-.1006 2.1717-.2013 4.2447-.302 6.4164 0 1.0858.2014 2.1717.302 3.2575.1007.9872.5033 2.3691.2014 3.2576-.2014.7897 3.6239.2961 3.9259-.691.5033-1.7769-.2014-4.0473-.4027-5.8241-.2013-1.6781 0-3.455.1007-5.2318 2.0132-.0987 4.1272-.2962 6.1405 0 .1006 1.382.2013 2.764.302 4.1459.1006 1.1846.2013 2.2704.2013 3.455 0 .9871.1007 2.4678-.2013 3.455-.8053 2.0729 3.2212 1.8755 3.8252.3948.7046-1.8755.5033-4.1459.4027-6.1202-.2014-2.3691-.604-4.8369-.604-7.3048ZM103.894 41.3711c-.906-2.764-2.416-5.1331-3.624-7.7983 1.007-1.9743 2.013-3.8499 3.02-5.8241.805-1.7769 1.51-3.8498 3.121-5.0344.604-.4936.604-.8884-.302-.9871-.906-.0987-2.114.1974-2.819.691-1.51 1.1845-2.416 2.5665-3.221 4.2446-1.0068 2.073-1.9128 4.0473-3.0201 6.0215-.1007.0987-.2014.2962-.2014.3949-.5033.2961-.8053.7897-.6039 1.2833-.8054 1.5794-1.6107 3.0601-2.5166 4.6395-.302-5.528-1.0067-11.0559-1.208-16.5838 0-1.2833-4.0266-.4936-4.0266 1.0858.2014 6.8112 1.208 13.6224 1.3087 20.5324v.0987c-.302.2961-.2014.4935.1006.5922 0 1.7769-.1006 3.455-.2013 5.2318-.5033.7898.5033 1.0859 1.1073 1.0859h.1007c.7046 0 2.6172-.3949 2.7179-1.382.2013-2.073.302-4.1459.2013-6.2189 1.6106-1.6782 2.9193-3.6524 4.1273-5.6267.8053 1.4807 1.5099 2.9614 2.0132 4.5408.9059 2.764 2.3149 5.2318 3.2209 7.9958.504 1.7768 4.53.691 4.027-1.0858-.906-2.6653-2.315-5.2318-3.322-7.8971ZM127.852 36.7316c-.201-.7897-1.409-.8885-2.315-.7897v-.9872c-.1-2.6652-.201-5.3305-.402-7.9957-.202-2.4679-1.611-3.3563-4.027-3.2576-2.416.0987-5.335.4936-7.651 1.382-2.617.9871-4.127 2.9614-4.63 5.6267-.604 2.9614.201 6.2189.403 9.1803.201 3.4549.1 7.0086.1 10.4636 0 .5923 4.027 0 4.027-1.0859v-8.2919c0-.7897-.101-1.5794-.101-2.4678 1.409-.5923 3.725 0 5.134.0987 1.107.0987 2.215-.1974 3.322-.2961 0 2.2704.101 4.6395.201 6.9099 0 1.1846.504 3.5537-.402 4.5408-.403.4936 1.51.2961 1.61.2961.806-.0987 1.812-.3948 2.316-1.0858 1.006-1.0858.503-3.7511.402-5.1331-.101-1.8755-.101-3.8498-.101-5.7254 1.007.1975 2.316-.5922 2.114-1.3819Zm-14.898-.1975c-.101-1.2832-.201-2.4678-.302-3.7511-.201-2.3691.101-5.5279 2.315-7.0086.604-.3949 1.712-.2961 2.416-.3949 1.007-.1974 2.014-.3948 2.92.1975 1.208.7897.906 3.6524.906 4.8369 0 1.9743.201 3.9485.302 6.0215-.604.0987-1.108.0987-1.712.0987-2.315-.0987-4.63-.3948-6.845 0ZM49.1328 24.9843c.5033-.0987 1.1073-.1974 1.5099-.4935.1007-.0987.2014-.0987.302-.1975.5034-.2961 1.0067-.7897.7047-1.3819-.5033-1.0859-.4027-2.2704-.4027-3.3563 0-.9871-1.0066-1.2833-1.8119-1.1846-.7047.0988-2.2146.5923-2.2146 1.4807 0 .9872-.1007 1.9743.1006 2.9614 0 .0988-.1006.1975-.1006.3949-.1007.1974 0 .3948.1006.5923v.3948c.1007.1975.2014.3949.4027.4936.4026.2961.906.2961 1.4093.2961Z" fill="#fff"/></svg>