<svg width="149" height="72" viewBox="0 0 149 72" fill="none" xmlns="http://www.w3.org/2000/svg">
<path d="M144.16 31.1053C142.65 32.1912 141.039 32.9809 139.428 33.8693C139.428 32.1912 139.328 30.4143 138.824 28.8349C138.925 28.5388 138.925 28.1439 138.925 27.8478C139.328 24.8864 139.63 20.8391 136.912 18.7662C136.61 18.47 135.704 18.7662 134.999 19.0623C134.798 18.8649 134.697 18.7662 134.496 18.6674C134.395 18.47 134.295 18.1739 134.295 17.9765C134.295 17.8777 134.093 17.779 133.892 17.779C134.194 17.3842 134.194 16.9893 133.489 16.6932C133.087 16.4958 132.684 16.397 132.382 16.2983C132.281 16.1996 132.281 16.1996 132.181 16.1996C131.275 15.9035 130.268 15.7061 129.261 15.5086C129.362 15.2125 129.664 14.7189 129.865 14.5215C129.966 14.3241 130.167 14.2254 130.268 14.1266C130.369 14.0279 130.369 14.0279 130.469 13.9292C130.469 13.9292 130.57 13.9292 130.57 13.8305C130.57 13.8305 130.57 13.8305 130.671 13.7318C131.073 13.4356 131.476 12.8434 130.872 12.5472C130.268 12.2511 129.362 12.4485 128.859 12.7447C127.953 13.4356 127.248 14.1266 126.745 15.1138C124.732 14.9163 122.718 14.9163 120.604 15.0151C120.705 14.9163 120.705 14.8176 120.705 14.7189C120.906 14.1266 119.799 14.2254 119.497 14.2254C117.886 14.4228 116.376 14.6202 114.766 14.8176C116.175 11.0665 117.886 6.3283 115.772 2.67591C114.564 0.602929 111.847 0.109363 109.632 0.0106495C107.216 -0.0880637 104.699 0.504216 102.585 1.59006C97.7536 4.1566 95.4383 9.19098 94.331 14.5215C93.8277 13.8305 92.0157 14.1266 91.7137 15.0151C91.613 15.3112 91.5124 15.6073 91.4117 16.0022C91.2104 16.1996 91.1097 16.397 91.1097 16.5945C91.1097 16.6932 91.1097 16.6932 91.1097 16.7919C91.0091 16.7919 91.0091 16.7919 90.9084 16.7919C90.9084 16.6932 90.9084 16.5945 91.0091 16.4958C91.1097 16.397 91.2104 16.2983 91.3111 16.1009C91.915 13.8305 92.519 11.5601 93.2237 9.3884C93.5257 8.5987 90.7071 8.99355 90.4051 9.78326C90.0024 10.9678 89.5998 12.1524 89.2978 13.3369C89.0964 13.4356 88.8951 13.5344 88.8951 13.6331V13.7318C88.7945 13.6331 88.5931 13.5344 88.3918 13.5344C88.3918 13.2382 88.3918 12.9421 88.3918 12.5472C88.3918 12.1524 85.5732 12.5472 85.5732 13.3369C85.5732 13.8305 85.5732 14.3241 85.5732 14.9163C85.3719 15.0151 85.2712 15.1138 85.0699 15.2125C84.9692 15.3112 84.9692 15.3112 84.8686 15.4099C84.7679 15.5086 84.7679 15.6073 84.7679 15.6073V15.7061C84.7679 15.7061 84.7679 15.706 84.6672 15.8048C84.5666 15.9035 84.4659 16.1009 84.6672 16.2983C84.8686 16.4958 85.1705 16.4958 85.3719 16.4958H85.4725C85.4725 16.6932 85.4725 16.7919 85.4725 16.9893C85.2712 16.9893 84.9692 16.9893 84.7679 16.9893L84.3652 16.8906C84.3652 16.4958 83.6606 16.397 82.9559 16.5945V16.4958C82.8553 15.9035 82.7546 15.3112 82.7546 14.7189C82.9559 14.6202 83.2579 14.5215 83.4593 14.4228C83.6606 14.3241 83.7612 14.2254 83.7612 14.0279C83.7612 13.9292 83.7612 13.9292 83.7612 13.8305C83.7612 13.6331 83.3586 13.6331 83.2579 13.6331C83.0566 13.6331 82.8553 13.6331 82.6539 13.6331C82.5533 12.3498 82.5533 11.0665 82.5533 9.78326C82.5533 8.99355 79.7347 9.48712 79.7347 10.573C79.7347 12.3498 79.7347 14.1266 79.936 15.8048C79.8354 15.8048 79.7347 15.8048 79.634 15.8048C79.634 15.3112 79.634 14.8176 79.634 14.3241C79.634 13.3369 78.3254 13.1395 77.5201 13.5344C77.8221 13.2382 78.0234 12.9421 77.9227 12.5472C77.5201 11.1652 77.1174 9.78326 76.9161 8.30256C76.7148 6.92057 73.8962 7.61157 74.0975 9.09227C74.2988 10.573 74.7015 11.9549 75.1041 13.3369C75.3055 14.1266 76.4128 14.2254 77.2181 13.8305C77.0168 14.0279 76.8154 14.3241 76.8154 14.6202C76.8154 14.8176 76.8154 15.0151 76.8154 15.2125C76.5134 14.9163 76.3121 14.9163 75.9095 14.9163C74.8022 14.9163 74.1982 15.8048 74.5002 16.397C74.2988 16.397 74.1982 16.2983 73.9968 16.2983C73.5942 15.1138 73.2922 13.8305 73.2922 12.5472C73.2922 11.6588 71.9836 11.5601 71.1782 11.8562C71.1782 11.7575 71.1782 11.7575 71.1782 11.6588C70.7756 10.8691 70.5743 9.98068 70.3729 9.19098C70.0709 7.90771 67.1517 8.5987 67.5543 9.98068C67.7557 10.573 67.8563 11.264 68.0577 11.8562C68.0577 11.8562 68.0577 11.8562 67.957 11.8562C67.655 11.9549 67.353 12.0537 67.051 12.2511C66.2457 12.3498 65.2391 12.8434 65.2391 13.4356C65.3397 13.9292 65.3397 14.4228 65.4404 14.8176C65.0377 14.9163 64.4338 14.9163 63.9304 15.0151C63.6284 14.2254 63.4271 13.4356 63.3265 12.6459C63.2258 11.7575 61.7158 11.7575 61.0112 12.3498C60.2059 10.2768 59.1992 8.40127 57.8906 6.62443C55.1727 3.26819 50.6428 2.08363 46.5156 2.97205C44.6029 3.3669 42.791 4.1566 41.4823 5.53859C40.2744 6.92057 40.0731 8.5987 40.2744 10.2768C40.4757 11.7575 40.8784 14.2254 41.885 16.1996C41.4823 16.1996 41.1804 16.1996 40.979 16.2983C40.677 16.397 40.375 16.4958 40.1737 16.6932C38.2611 16.6932 36.2478 16.6932 34.3352 16.5945C30.1073 16.397 25.9801 15.7061 21.7522 15.9035C20.8462 15.9035 20.2422 16.5945 20.2422 17.1867C19.2356 17.6803 18.5309 18.47 18.1283 19.4572C16.417 18.3713 14.605 17.1867 12.7931 16.2983C12.0884 15.9035 9.47118 16.9893 10.4778 17.4829C12.2898 18.3713 14.1017 19.5559 15.813 20.6417C16.3163 20.9378 17.1216 20.7404 17.625 20.543C17.625 20.543 17.7256 20.543 17.8263 20.4443C17.5243 21.8263 17.625 23.5044 18.0276 24.8864C18.0276 24.9851 18.1283 25.0838 18.229 25.1825C18.229 25.4787 18.229 25.8735 18.229 26.1697C18.229 26.2684 18.229 26.2684 18.229 26.3671C17.8263 26.5645 17.5243 26.8606 17.4236 27.1568C17.2223 28.5388 17.1216 29.9208 17.1216 31.3027C16.8197 31.5002 16.6183 31.7963 16.6183 32.0924C16.417 35.35 16.6183 38.7062 17.1216 41.9638C17.323 44.629 17.8263 47.1956 18.3296 49.8608C18.4303 50.2557 18.4303 50.6505 18.5309 51.1441C18.229 52.2299 18.1283 53.5132 18.3296 54.5991C17.4236 54.7965 16.6183 55.4875 17.1216 56.1785C17.927 57.363 18.7323 58.1527 19.7389 58.745C19.1349 58.6463 18.3296 58.8437 17.8263 59.3373C17.021 60.127 16.115 60.818 15.3097 61.6077C14.907 62.0025 15.0077 62.4961 15.6117 62.6935C16.3163 62.891 17.1216 62.5948 17.625 62.2C18.4303 61.4103 19.3363 60.7193 20.1416 59.9296C20.3429 59.7321 20.4436 59.436 20.3429 59.2386C23.5641 60.9167 27.5907 60.5218 31.5166 60.127C30.6106 61.7064 30.0066 63.3845 29.302 65.0627C29 65.7536 31.8186 65.4575 32.1206 64.6678C32.7246 62.9897 33.3286 61.4103 34.2345 59.8309C37.9591 59.9296 41.7843 59.9296 45.5089 59.9296C45.6096 60.127 45.9116 60.2257 46.2136 60.2257C49.5355 60.5219 52.7567 60.127 55.978 59.5347C60.8098 59.3373 65.6417 59.0411 70.4736 58.745C78.0234 58.5476 85.6739 58.4489 93.2237 58.4489C93.3243 58.5476 93.425 58.6463 93.5257 58.745C93.8277 59.0411 94.1296 59.0411 94.5323 59.0411C94.633 59.0411 94.633 59.0411 94.7336 59.0411C95.4383 59.0411 96.1429 59.1399 96.8476 59.1399C97.0489 59.1399 97.1496 59.2386 97.4516 59.1399C98.2569 59.2386 99.0622 59.2386 99.7668 59.3373C99.9682 59.5347 100.27 59.6334 100.572 59.7321C104.397 60.0283 108.223 60.2257 112.048 60.4231C112.149 60.6206 112.551 60.7193 112.853 60.7193C120 60.818 128.255 63.4832 134.597 59.0411C135.1 58.6463 134.899 58.1527 134.295 58.054C134.194 58.054 134.093 58.054 133.993 58.054C135.201 55.29 136.207 52.5261 136.912 49.5647C137.315 49.3673 137.516 49.0711 137.516 48.6763C137.516 47.4917 137.717 46.3071 137.919 45.1226C138.12 44.2342 138.22 43.3457 138.321 42.4573C138.724 40.2856 139.126 38.1139 139.328 36.041C141.643 34.9551 143.858 33.7706 145.972 32.2899C147.582 31.1053 145.166 30.4143 144.16 31.1053ZM88.3918 16.2983L88.2911 16.397C88.3918 16.1009 88.3918 15.8048 88.4925 15.5086H88.5931C88.5931 15.7061 88.4925 16.0022 88.3918 16.2983Z" fill="black"/>
<path d="M63.7289 12.5468C63.8296 12.7442 64.3329 12.7442 64.5343 12.7442C64.9369 12.7442 65.3396 12.6455 65.6416 12.5468C66.0442 12.3494 66.7489 11.9545 66.4469 11.461C66.0442 10.8687 65.8429 10.2764 65.4402 9.68412C65.3396 9.48669 64.8362 9.48669 64.6349 9.48669C64.2323 9.48669 63.8296 9.58541 63.5276 9.68412C63.125 9.88155 62.4203 10.2764 62.7223 10.77C63.0243 11.3622 63.3263 12.0532 63.7289 12.5468Z" fill="black"/>
<path d="M20.8461 10.8691C21.0474 11.4613 21.9534 11.4613 22.4567 11.3626C22.96 11.2639 23.866 10.7703 23.6647 10.0793C23.4633 9.48707 23.262 8.79608 22.7587 8.30251C22.2554 7.80894 21.4501 7.90766 20.8461 8.10508C20.4434 8.30251 19.6381 8.89479 20.1414 9.38835C20.5441 9.98063 20.6447 10.2768 20.8461 10.8691Z" fill="black"/>
<path d="M30.9124 13.8306C31.7177 13.8306 34.033 12.5474 32.1203 12.5474C31.2144 12.5474 28.9998 13.8306 30.9124 13.8306Z" fill="black"/>
<path d="M123.423 12.2512C123.725 12.3499 124.128 12.2512 124.53 12.1525C124.832 12.0538 125.235 11.9551 125.436 11.6589C125.839 11.2641 126.141 10.968 126.443 10.4744C126.544 10.277 126.644 10.0795 126.443 9.88211C126.242 9.68468 125.94 9.68468 125.638 9.58597C125.235 9.58597 124.832 9.68468 124.53 9.78339C124.228 9.88211 123.926 10.0795 123.725 10.3757C123.624 10.5731 123.524 10.7705 123.322 10.8692C123.222 10.968 123.222 10.968 123.121 11.0667C122.92 11.2641 122.819 11.4615 122.819 11.6589C122.92 12.0538 123.121 12.1525 123.423 12.2512Z" fill="black"/>
<path d="M136.811 17.5816C137.415 17.4829 138.22 17.3841 138.723 16.8906C140.032 15.8047 141.341 14.7189 142.347 13.3369C142.649 12.942 141.341 13.1395 141.24 13.1395C140.737 13.2382 139.931 13.4356 139.529 13.8305C138.623 15.1137 137.314 16.1009 136.106 17.1867C135.603 17.5816 136.509 17.5816 136.811 17.5816Z" fill="black"/>
<path d="M147.683 44.3333C146.072 44.3333 144.461 44.3333 142.75 44.3333C142.146 44.3333 141.24 44.8268 141.139 45.4191C141.039 46.1101 141.945 46.3075 142.448 46.3075C144.059 46.3075 145.669 46.3075 147.381 46.3075C147.985 46.3075 148.891 45.814 148.991 45.2217C149.092 44.5307 148.287 44.3333 147.683 44.3333Z" fill="black"/>
<path d="M57.3873 60.1268C56.884 60.2255 55.978 60.423 55.7767 60.9165C55.2734 62.1998 54.7701 63.4831 54.3674 64.7663C54.1661 65.4573 56.9847 65.0625 57.186 64.2728C57.5887 62.9895 57.9913 61.7062 58.5953 60.423C58.7966 59.9294 57.5887 60.1268 57.3873 60.1268Z" fill="black"/>
<path d="M62.0179 62.6935C61.7159 62.6935 61.3133 62.7922 61.0113 62.8909C60.7093 62.9896 60.3066 63.0883 60.0046 63.2858C59.904 63.3845 59.7026 63.4832 59.7026 63.6806C59.7026 63.7793 59.7026 63.878 59.7026 63.9767C59.7026 64.0755 59.602 64.1742 59.602 64.2729C59.5013 64.3716 59.5013 64.4703 59.602 64.569C59.8033 64.6677 60.1053 64.6677 60.3066 64.6677C60.7093 64.6677 61.0113 64.569 61.4139 64.3716C61.6153 64.2729 62.0179 64.1742 62.2192 63.9767C62.3199 63.7793 62.4206 63.6806 62.5212 63.4832C62.5212 63.2858 62.5212 63.187 62.5212 62.9896C62.5212 62.6935 62.1186 62.6935 62.0179 62.6935Z" fill="black"/>
<path d="M117.483 66.3456C117.081 65.6546 114.464 66.6417 114.665 67.1353C115.47 68.7147 116.577 70.1954 117.584 71.7748C117.987 72.4658 120.604 71.38 120.403 70.9851C119.396 69.4057 118.289 67.925 117.483 66.3456Z" fill="black"/>
<path d="M121.51 63.9767C121.208 63.3844 120.403 63.3844 119.9 63.5818C119.497 63.6805 118.39 64.1741 118.692 64.7664C119.094 65.5561 119.497 66.3458 119.9 67.0368C120.202 67.6291 121.007 67.6291 121.51 67.4316C121.913 67.3329 123.02 66.8394 122.718 66.2471C122.315 65.5561 121.913 64.7664 121.51 63.9767Z" fill="black"/>
<path d="M5.74646 42.6544C4.2365 43.0492 2.72654 43.2467 1.21658 43.6415C0.713257 43.7402 -0.0920558 44.2338 0.00860824 44.9248C0.209936 45.6158 1.11591 45.6158 1.7199 45.5171C3.22986 45.1222 4.73982 44.9248 6.24978 44.5299C6.7531 44.4312 7.55841 43.839 7.45775 43.2467C7.15576 42.5557 6.24978 42.5557 5.74646 42.6544Z" fill="black"/>
</svg>
